<?xml version="1.0" standalone="no"?> <!DOCTYPE svg PUBLIC "-//W3C//DTD SVG 1.0//EN" "http://www.w3.org/TR/2001/REC-SVG-20010904/DTD/svg10.dtd" > <svg xmlns="http://www.w3.org/2000/svg" width="100%" height="100%">
<defs >
<font id="agbold" horiz-adv-x="462" ><font-face
    font-family="AG Schoolbook"
    units-per-em="1000"
    panose-1="2 0 8 3 4 0 0 2 0 4"
    ascent="955"
    descent="-200"
    alphabetic="0" />
<missing-glyph horiz-adv-x="292" />
<glyph unicode=" " glyph-name="space" horiz-adv-x="292" />
<glyph unicode="!" glyph-name="exclam" horiz-adv-x="292" d="M239 147V0H93V147H239ZM216 203H115L92 469V707H245V469L216 203Z" />
<glyph unicode="&quot;" glyph-name="quotedbl" horiz-adv-x="396" d="M316 421H289L242 668Q241 673 241 678T240 690Q240 705 246 716T261 735T282 745T305 749Q324 749 338 741T359 718Q364 708 364 699T363 680L316 421ZM107 421H80L34 668Q33 673 33 678T32
690Q32 705 38 716T53 735T74 745T97 749Q116 749 130 741T151 718Q156 708 156 699T154 680L107 421Z" />
<glyph unicode="#" glyph-name="numbersign" horiz-adv-x="667" d="M435 0H334L365 214H266L236 0H134L164 214H42V313H177L190 408H65V508H203L230 706H334L306 508H404L431 706H532L505 508H622V408H492L478 313H601V214H466L435 0ZM378 313L391 408H292L278 313H378Z" />
<glyph unicode="$" glyph-name="dollar" horiz-adv-x="562" d="M326 696Q368 688 402 675T461 639T501 580T521 489L390 483Q390 508 383 524T365 550T344 565T326 573V410Q368 398 406 384T475 347T522 290T540 204Q540 194 539 176T531 137T513 93T479 50Q447
21 409 8T326 -10V-106H246V-10Q202 -6 163 7T91 50Q67 71 53 94T33 140T24 182T21 216H160Q160 206 160 197T166 175Q172 158 182 148T203 131T226 121T246 115V292Q225 298 212 302T190 309T175 314T162 320Q147 326 126 337T85 368T51 419T37 495Q37 535 50
572T92 636Q111 655 133 666T177 684T217 692T246 696V793H326V696ZM246 577Q233 575 220 571T197 558T180 538T173 508Q173 490 180 478T197 458T221 444T246 434V577ZM326 115Q337 119 347 122T365 131Q381 142 389 158T398 191Q398 210 388 225Q376 244 358
252T326 265V115Z" />
<glyph unicode="%" glyph-name="percent" horiz-adv-x="875" d="M852 230Q852 202 850 183T846 151Q843 130 838 110T821 70Q795 25 758 8T683 -9Q643 -9 616 5T570 41T543 90T529 143T523 190T522 223Q522 252 527 292T555 370Q601 447 695 447Q706 447 721 445T752
437T786 417T818 380Q839 347 845 308T852 230ZM754 225Q754 238 753 261T746 305T726 343T688 359Q665 359 651 344T629 307Q626 296 624 283T621 258T620 235T619 219Q619 207 620 182T627 135Q632 114 641 102T659 85T675 79T685 78Q688 78 696 79T713 87T731
105T745 139Q751 163 752 188T754 225ZM353 478Q353 444 351 423T346 389Q331 310 287 275T184 240Q136 240 105 260T55 313Q34 349 29 392T23 470Q23 489 24 507T29 543Q34 570 45 597T76 646T125 682T194 696Q212 696 229 693T262 681Q295 664 313 637T341 579T351
522T353 478ZM186 327Q207 327 221 339T242 373T253 421T256 478Q256 608 190 608Q164 608 150 591T129 551T121 506T120 475Q120 457 121 432T128 383T147 343T186 327ZM340 0H254L535 687H621L340 0Z" />
<glyph unicode="&amp;" glyph-name="ampersand" horiz-adv-x="625" d="M588 343Q577 234 513 147Q538 129 557 122T607 116V-5Q598 -7 589 -8T568 -9Q539 -9 516 -2T475 15T446 35T428 50Q383 13 336 -1T245 -15Q189 -15 147 4T77 54T34 123T20 200Q20 245 37
279T77 337T125 376T164 399Q155 415 141 447T126 524Q126 562 140 593T179 646T234 680T301 692Q335 692 366 681T420 648T458 595T472 526Q472 483 456 453T419 402T376 370T345 354Q358 334 366 321T383 296T402 270T428 236Q435 251 440 263T448 288T453 313T457
343H588ZM280 450Q287 453 299 459T322 474T342 497T351 529Q351 552 335 564T298 576Q277 576 264 562T251 525Q251 508 260 489Q262 484 268 472T280 450ZM347 138Q330 158 313 180T280 225T251 266T228 300Q223 298 219 296T210 290Q180 270 168 245T156 200Q156
185 162 169T180 139T210 116T255 107Q287 107 308 117T347 138Z" />
<glyph unicode="&apos;" glyph-name="quotesingle" horiz-adv-x="208" d="M118 421H91L44 668Q43 673 43 678T42 690Q42 705 48 716T63 735T84 745T107 749Q126 749 140 741T161 718Q166 708 166 699T165 680L118 421Z" />
<glyph unicode="(" glyph-name="parenleft" horiz-adv-x="354" d="M215 -176Q195 -148 169 -107T120 -12T80 110T64 259Q64 339 79 405T119 527T170 627T222 706H348Q319 653 296 605T255 506T228 394T218 259Q218 201 225 144T247 31Q259 -13 272 -46T299 -104T325
-146T348 -176H215Z" />
<glyph unicode=")" glyph-name="parenright" horiz-adv-x="354" d="M140 706Q156 683 181 644T231 550T273 425T291 269Q291 190 276 124T237 3T185 -96T133 -176H9Q38 -124 61 -76T102 23T128 134T137 270Q137 328 131 385T109 498Q97 541 83 574T55 633T28 676T5
706H140Z" />
<glyph unicode="*" glyph-name="asterisk" horiz-adv-x="396" d="M347 629L374 550L266 514L334 423L266 373L197 467L130 373L62 423L130 514L23 550L50 629L156 592V706H240V592L347 629Z" />
<glyph unicode="+" glyph-name="plus" horiz-adv-x="667" d="M386 0H283V240H42V342H283V583H386V342H626V240H386V0Z" />
<glyph unicode="," glyph-name="comma" horiz-adv-x="250" d="M199 150V12Q199 1 198 -12T192 -41T178 -74T152 -109Q129 -134 102 -147T42 -169V-114Q51 -110 67 -102T100 -71Q117 -50 120 -32T126 0H52V150H199Z" />
<glyph unicode="-" glyph-name="hyphen" horiz-adv-x="375" d="M333 340V221H41V340H333Z" />
<glyph unicode="." glyph-name="period" horiz-adv-x="250" d="M199 149V0H50V149H199Z" />
<glyph unicode="/" glyph-name="slash" horiz-adv-x="458" d="M314 706H437L146 0H21L314 706Z" />
<glyph unicode="0" glyph-name="zero" horiz-adv-x="562" d="M536 353Q536 330 535 297T527 227T507 151T471 82Q445 47 415 28T357 0T307 -10T274 -12Q260 -12 239 -10T192 1T141 28T91 80Q69 110 56 146T37 218T28 289T26 350Q26 372 27 405T36 475T59 549T101
618Q137 660 187 680T292 700Q302 700 321 699T365 689T417 664T468 616Q492 586 505 551T525 481T534 412T536 353ZM399 342Q399 378 396 419T380 496T345 556T283 580Q256 580 232 565Q208 550 195 525T174 472T165 413T163 357Q163 329 164 303T170 251Q174
222 182 196T203 151T235 120T280 108Q311 108 335 126Q352 138 363 156T380 194T390 229T394 253Q397 276 398 298T399 342Z" />
<glyph unicode="1" glyph-name="one" horiz-adv-x="562" d="M380 687V0H238V467H77V571Q105 570 134 572T189 587T233 622T256 687H380Z" />
<glyph unicode="2" glyph-name="two" horiz-adv-x="562" d="M517 126V0H44V115L109 171Q155 210 184 234T231 273T260 298T281 319Q314 352 339 393T365 479Q365 521 340 545T277 569Q239 569 218 548T188 493Q185 479 185 463T184 434L44 439Q44 453 45 474T53
521T71 572T104 623Q133 655 177 677T285 699Q326 699 365 687T436 650T486 584T505 488Q505 445 493 409T464 345T430 296T401 265Q391 255 382 246T356 223T314 186T243 126H517Z" />
<glyph unicode="3" glyph-name="three" horiz-adv-x="562" d="M52 470Q52 483 53 503T60 548T78 596T114 642Q140 666 181 682T281 699Q325 699 364 687T433 652T480 595T498 514Q498 477 488 452T463 410T434 384T409 371Q425 366 443 359T482 331Q498 314 507
297T520 263T526 234T527 211Q527 161 508 120T456 49T377 4T279 -12Q222 -12 177 5T103 48Q65 84 50 134T36 238L172 244Q171 238 171 234T171 224Q171 192 180 170T205 134T239 113T279 106Q324 106 353 136T382 211Q382 255 354 281T273 308Q262 308 253 307T227
304V421Q246 418 265 418Q313 418 338 442T363 500Q363 538 338 560T277 583Q252 583 234 573T205 547T189 509T185 464L52 470Z" />
<glyph unicode="4" glyph-name="four" horiz-adv-x="562" d="M534 147H440V0H306V147H21V291L299 687H440V264H534V147ZM306 264L309 510L141 264H306Z" />
<glyph unicode="5" glyph-name="five" horiz-adv-x="562" d="M505 688L492 561H216L188 436Q192 439 195 441T202 446Q224 459 253 466T310 473Q352 473 391 458T460 413T508 340T526 240Q526 193 511 148T465 68T384 10T266 -12Q221 -12 179 0T102 40Q76 61 61
84T38 129T26 171T21 203L162 210Q163 199 164 188T172 163Q186 134 211 121T266 107Q289 107 310 115T348 140T375 182T385 239Q385 290 354 322T272 354Q212 354 178 307H49L115 688H505Z" />
<glyph unicode="6" glyph-name="six" horiz-adv-x="562" d="M386 510Q385 518 382 530T370 555T345 575T299 584Q257 584 232 563T193 513T174 453T165 400Q172 408 183 421T214 446T259 466T320 475Q366 475 405 458T472 409T516 335T532 241Q532 193 518 148T475
67T400 10T291 -12Q220 -12 161 20T68 128Q47 177 41 229T34 334Q34 360 35 386T42 439Q50 494 70 543T122 626Q149 654 195 676T307 699Q344 699 379 689T444 657T493 601T519 518L386 510ZM289 107Q334 107 367 140T400 234Q400 292 370 323T292 354Q271 354
251 348T215 327T188 290T178 235Q178 208 185 185T207 145T242 117T289 107Z" />
<glyph unicode="7" glyph-name="seven" horiz-adv-x="562" d="M506 560Q495 551 485 542T464 518T439 485T409 438Q396 416 376 377T336 282T302 155T289 0H136Q137 41 143 82T158 162T178 235T200 295Q229 367 267 433T354 560H49V687H506V560Z" />
<glyph unicode="8" glyph-name="eight" horiz-adv-x="562" d="M435 368Q446 363 460 355T491 326Q514 298 522 269T531 208Q531 166 517 127T471 56T393 7T280 -12Q234 -12 188 -1T107 38Q78 61 54 102T30 205Q30 247 42 276T70 325T102 354T126 368Q115 375 104
383T80 410Q68 427 60 450T51 505Q51 551 70 587T122 648T196 686T283 699Q316 699 356 690T430 660T488 601T512 507Q512 469 502 444T479 403Q467 388 456 381T435 368ZM277 411Q288 411 305 414T339 426T368 453T380 500Q380 542 352 563T286 584Q268 584 250
580T216 565T192 538T182 497Q182 459 208 435T277 411ZM280 104Q335 104 365 134T396 208Q396 227 390 246T370 279T335 303T282 312Q224 312 193 283T162 207Q162 163 192 134T280 104Z" />
<glyph unicode="9" glyph-name="nine" horiz-adv-x="562" d="M176 178Q177 165 181 152T194 128T219 110T259 103Q281 103 297 108T325 120T343 136T355 151Q376 180 385 215T396 287Q388 275 380 265T351 242Q327 227 302 220T245 213Q193 213 153 232T86 282T44
356T30 444Q30 490 44 535T87 617T163 676T272 699Q345 699 403 664T494 557Q504 533 511 506T521 451T526 399T528 355Q528 328 526 301T520 248Q512 196 494 148T439 61Q429 50 413 38T375 15T323 -3T257 -11Q212 -11 176 0T113 32Q92 49 79 69T58 109T47 145T43
170L176 178ZM273 579Q251 579 231 571T196 547T172 506T163 447Q163 396 191 364T270 331Q324 331 354 365T385 450Q385 469 380 491T361 533T326 566T273 579Z" />
<glyph unicode=":" glyph-name="colon" horiz-adv-x="292" d="M241 494V346H94V494H241ZM241 148V0H94V148H241Z" />
<glyph unicode=";" glyph-name="semicolon" horiz-adv-x="292" d="M240 150V12Q240 1 239 -12T233 -41T219 -74T192 -109Q169 -134 143 -147T83 -169V-114Q92 -110 108 -102T141 -71Q158 -50 161 -32T167 0H92V150H240ZM240 346H91V494H240V346Z" />
<glyph unicode="&lt;" glyph-name="less" horiz-adv-x="667" d="M667 -3L0 300V404L667 709V596L138 352L667 109V-3Z" />
<glyph unicode="=" glyph-name="equal" horiz-adv-x="667" d="M667 146H0V249H667V146ZM667 334H0V437H667V334Z" />
<glyph unicode="&gt;" glyph-name="greater" horiz-adv-x="667" d="M0 -3V109L528 352L0 596V709L667 404V300L0 -3Z" />
<glyph unicode="?" glyph-name="question" horiz-adv-x="604" d="M398 147V0H251V147H398ZM53 479Q54 494 56 516T65 564T86 615T125 662Q144 678 168 689T219 708T271 719T319 722Q374 722 419 707T495 663T543 596T560 510Q560 498 559 481T549 442T525 395T477
343Q468 335 458 328T438 312Q423 300 414 289T400 266T392 240T390 207L254 206Q254 232 255 254T258 288Q262 311 279 340T343 404Q351 410 359 415T375 428Q379 431 385 438T398 454T408 477T413 507Q413 545 387 571T311 598Q285 598 266 591T232 571Q210 551
205 527T197 479H53Z" />
<glyph unicode="@" glyph-name="at" horiz-adv-x="896" d="M823 38Q802 17 768 -10T688 -63T584 -106T456 -124Q392 -124 324 -105T199 -44T106 67T69 235Q69 331 104 417T200 570T346 674T529 713Q598 713 653 692T747 632T806 540T827 423Q827 378 816 327T785
231Q768 194 746 164T699 113T647 80T593 68Q579 68 570 70T553 76Q538 83 529 92T515 111T509 130T506 146Q501 139 490 126T462 101T422 79T371 69Q344 69 320 79T277 109T247 161T236 234Q236 288 252 339T298 431T366 496T451 521Q478 521 497 513T529 492T549
468T561 448L573 500H652L619 345Q608 295 603 265T595 216T592 190T591 178Q591 166 595 153T616 140Q635 140 659 162T705 223T741 312T756 419Q756 481 736 524T682 595T607 634T522 646Q445 646 375 613T253 524T169 394T138 236Q138 153 168 97T244 7T345
-42T453 -57Q497 -57 535 -49T606 -28T665 0T713 30Q739 47 755 61T783 88L823 38ZM532 349Q532 397 509 420T457 444Q427 444 403 425T362 375T336 309T327 240Q327 224 330 208T342 177Q352 163 367 155T399 146Q420 146 443 159T483 196Q497 214 506 235T521
278T529 317T532 349Z" />
<glyph unicode="A" glyph-name="A" horiz-adv-x="667" d="M419 706L670 0H492L446 150H220L175 0H-2L239 706H419ZM257 279H407L330 551L257 279Z" />
<glyph unicode="B" glyph-name="B" horiz-adv-x="667" d="M351 706Q372 706 396 706T447 701T498 689T545 666Q577 644 596 608T616 526Q616 497 607 471T579 422Q562 404 547 395T516 378Q530 373 548 364T586 331Q617 298 625 266T634 208Q634 191 631 171T620
129T598 87T559 48Q536 30 513 21T466 7T415 1T359 0H58V706H351ZM217 433H335Q380 434 402 436T439 452Q459 472 459 503Q459 535 438 554Q421 568 395 571T330 574H217V433ZM217 130H315Q357 131 387 133T437 149Q452 160 462 179T473 223Q473 242 466 257T447
284Q438 292 429 296T407 303T377 306T334 307H217V130Z" />
<glyph unicode="C" glyph-name="C" horiz-adv-x="708" d="M532 482Q518 530 483 560T386 591Q374 591 357 589T321 580T281 559T243 519Q216 478 210 434T203 354Q203 340 204 321T208 281T219 238T240 197Q266 155 304 137T385 118Q432 118 462 135T510 175Q527
197 530 214T536 247L700 237Q698 218 689 182T648 102Q615 58 576 34T499 -1T431 -14T384 -16Q359 -16 329 -13T267 0T201 29T136 80Q94 123 63 192T32 355Q32 424 52 490T115 608T224 691T383 723Q401 723 430 721T492 710T561 681T628 627Q646 606 657 586T676
548T685 516T690 493L532 482Z" />
<glyph unicode="D" glyph-name="D" horiz-adv-x="688" d="M55 707H232Q279 707 312 706T371 703T417 697T460 684Q507 666 543 634T604 558T641 463T654 354Q654 290 640 238T601 144T543 74T474 29Q449 18 423 12T368 4T306 1T234 0H55V707ZM214 131H246Q307
131 348 135T418 162Q443 181 464 228T485 355Q485 403 477 442T450 508Q434 532 414 545T368 565T312 572T245 574H214V131Z" />
<glyph unicode="E" glyph-name="E" horiz-adv-x="604" d="M546 434V308H215V129H578V0H57V706H572V576H215V434H546Z" />
<glyph unicode="F" glyph-name="F" horiz-adv-x="583" d="M529 296H213V0H55V707H573V575H213V422H529V296Z" />
<glyph unicode="G" glyph-name="G" horiz-adv-x="750" d="M704 394Q705 344 703 288T680 174Q663 126 638 93T583 39T522 6T462 -11T410 -17T373 -18Q357 -18 330 -17T271 -7T203 17T137 63Q108 90 89 123T57 192T40 268T34 348Q34 441 62 511T138 629T250 700T388
724Q451 724 510 706T616 644Q639 621 653 599T676 555T689 516T695 484L540 476Q539 480 539 484T536 493Q523 541 482 565T387 589Q372 589 354 587T317 576Q277 560 254 532T218 472T203 407T200 351Q200 299 212 251T259 167Q275 150 292 141T326 126T356 120T382
119Q391 119 405 120T437 125T473 139T507 165Q532 191 537 216T545 269L382 266V394H704Z" />
<glyph unicode="H" glyph-name="H" horiz-adv-x="688" d="M472 438V707H631V0H472V305H217V0H56V707H217V438H472Z" />
<glyph unicode="I" glyph-name="I" horiz-adv-x="521" d="M24 707H474V217Q474 106 417 47T239 -13Q186 -13 143 -1T70 36T23 102T6 200V275H157V210Q157 164 175 141T235 118Q280 118 297 143T315 213V576H24V707Z" />
<glyph unicode="J" glyph-name="J" horiz-adv-x="521" d="M15 706H464V51Q464 33 463 14T456 -25T441 -65T411 -105Q388 -130 362 -143T311 -163T266 -171T233 -172Q185 -172 136 -160T52 -115Q33 -96 22 -76T5 -37T-2 1T-4 35V116H149V38Q149 28 150 19T154 1Q163
-22 184 -32T225 -42Q255 -42 271 -30T295 -1T304 36T306 72V576H15V706Z" />
<glyph unicode="K" glyph-name="K" horiz-adv-x="667" d="M54 706H213V426L211 384L473 706H666L386 383L684 0H481L212 369L214 336V0H54V706Z" />
<glyph unicode="L" glyph-name="L" horiz-adv-x="562" d="M215 132H550V0H56V706H215V132Z" />
<glyph unicode="M" glyph-name="M" horiz-adv-x="833" d="M55 706H265L420 428L575 706H774V0H622L630 550L458 238H372L198 552L205 0H55V706Z" />
<glyph unicode="N" glyph-name="N" horiz-adv-x="688" d="M629 706V0H480L203 458L215 0H57V706H210L484 242L474 706H629Z" />
<glyph unicode="O" glyph-name="O" horiz-adv-x="771" d="M386 722Q465 722 529 695T639 620T710 504T735 354Q735 273 710 205T638 88T526 12T380 -16Q297 -16 233 14T124 94T58 212T35 353Q35 427 56 494T122 611T231 692T386 722ZM568 348Q568 393 560 436T524
518Q508 540 490 554T454 575T418 585T384 588Q337 588 303 569T246 517T212 442T201 353Q201 311 211 270T243 195T300 141T386 120Q426 120 459 135T517 179T554 251T568 348Z" />
<glyph unicode="P" glyph-name="P" horiz-adv-x="625" d="M291 706Q325 706 353 706T404 703T449 695T490 680Q524 663 546 639T581 586T599 530T604 476Q604 428 592 392T560 331T519 289T476 264Q438 249 392 247T289 244H217V0H57V706H291ZM217 375H268Q298
375 318 375T355 377Q385 381 402 393T429 420T442 450T445 476Q445 509 429 532T390 565Q381 569 371 571T346 574T313 575T267 576H217V375Z" />
<glyph unicode="Q" glyph-name="Q" horiz-adv-x="771" d="M740 69L655 -33L572 35Q545 19 501 2T382 -16Q357 -16 328 -13T266 0T201 30T137 81Q117 102 99 129T66 190T44 265T35 353Q35 425 56 492T120 610T230 692T386 723Q470 723 535 694T644 615T712 499T735
357Q735 293 720 236T669 127L740 69ZM392 186L476 287L547 229Q550 237 554 247T561 273T566 308T568 356Q568 403 558 444Q550 473 536 499T500 545T449 576T384 588Q344 588 311 572T253 525T216 452T202 354Q202 307 213 265T246 191T303 139T384 120Q409 120
426 124T454 134L392 186Z" />
<glyph unicode="R" glyph-name="R" horiz-adv-x="646" d="M52 707H297Q343 706 382 705T453 697T511 679T559 645Q585 618 597 581T610 502Q610 459 596 420T552 351Q532 331 510 320T465 303T420 295T377 292L633 0H434L209 276V0H52V707ZM209 574V389H338Q359
390 383 393T427 416Q441 430 447 448T453 487Q453 518 441 535T411 561T372 572T333 574H209Z" />
<glyph unicode="S" glyph-name="S" horiz-adv-x="667" d="M284 297Q241 307 195 321T112 366Q91 385 79 405T60 445T52 482T50 512Q50 555 65 593Q85 640 125 669Q147 686 173 696T227 713T281 721T328 723Q393 723 439 711T516 680T565 636T594 586T609 539T615
500L458 488Q455 510 448 534T411 576Q391 588 368 591T321 595Q313 595 295 594T258 586T225 565T210 524Q210 504 219 492T248 470T296 454T365 438Q409 429 455 416T540 379T602 315T626 214Q626 193 622 167T604 113Q581 66 538 35Q517 20 491 11T438 -5T382
-13T329 -16Q311 -16 287 -15T235 -9T181 5T130 28Q94 50 74 78T44 134T31 186T27 225L186 233Q188 208 195 185T234 142Q257 127 283 122T337 117Q394 117 428 137T463 198Q463 220 453 234T423 258T377 275T317 290L284 297Z" />
<glyph unicode="T" glyph-name="T" horiz-adv-x="583" d="M370 575V0H212V575H1V706H581V575H370Z" />
<glyph unicode="U" glyph-name="U" horiz-adv-x="667" d="M617 707V295Q617 261 617 241T614 198Q613 183 610 162T597 118T571 73T526 31Q502 15 473 6T416 -8T364 -14T325 -16Q270 -16 221 -4T135 34Q104 56 87 84T61 143T51 207T49 275V707H209V285Q209 257
210 237T214 201T223 174T238 152Q251 138 275 129T334 119Q376 119 398 131T429 153Q450 176 454 208T458 290V707H617Z" />
<glyph unicode="V" glyph-name="V" horiz-adv-x="646" d="M472 706H643L397 0H249L1 706H174L324 193L472 706Z" />
<glyph unicode="W" glyph-name="W" horiz-adv-x="896" d="M738 706H895L695 0H547L447 478L345 0H199L1 706H161L273 233L371 706H523L623 233L738 706Z" />
<glyph unicode="X" glyph-name="X" horiz-adv-x="646" d="M444 706H629L414 374L647 0H461L323 249L183 0H-2L236 374L21 706H196L323 496L444 706Z" />
<glyph unicode="Y" glyph-name="Y" horiz-adv-x="625" d="M454 706H628L391 263V0H233V263L-5 706H171L310 418L454 706Z" />
<glyph unicode="Z" glyph-name="Z" horiz-adv-x="646" d="M611 582L229 129H619V0H22V118L409 574H43V706H611V582Z" />
<glyph unicode="[" glyph-name="bracketleft" horiz-adv-x="375" d="M360 587H212V-57H360V-177H64V706H360V587Z" />
<glyph unicode="\" glyph-name="backslash" horiz-adv-x="458" d="M314 0L21 706H146L437 0H314Z" />
<glyph unicode="]" glyph-name="bracketright" horiz-adv-x="375" d="M15 -58H163V587H15V706H311V-177H15V-58Z" />
<glyph unicode="^" glyph-name="asciicircum" horiz-adv-x="729" d="M601 324H483L367 569L245 324H128L323 706H414L601 324Z" />
<glyph unicode="_" glyph-name="underscore" horiz-adv-x="500" d="M510 -125H-10V-75H510V-125Z" />
<glyph unicode="`" glyph-name="grave" horiz-adv-x="292" d="M255 589H158L36 736H207L255 589Z" />
<glyph unicode="a" glyph-name="a" horiz-adv-x="562" d="M371 57Q364 48 354 36T328 14T289 -4T235 -11Q189 -11 150 7T82 59T37 141T20 251Q20 327 41 380T96 467T169 516T246 531Q289 531 321 511T374 452V519H515V0H371V57ZM370 265Q370 316 359 344T333 386Q309
412 274 412Q254 412 235 402T201 374Q182 349 176 320T170 260Q170 236 173 214T186 171Q201 137 223 124T268 110Q275 110 293 114T332 139Q355 165 362 197T370 265Z" />
<glyph unicode="b" glyph-name="b" horiz-adv-x="583" d="M196 707V481Q203 488 209 494T229 507Q252 520 279 526T333 532Q380 532 422 515T500 450Q508 438 517 422T534 384T547 334T552 269Q552 231 546 192Q541 166 532 135T502 73Q481 42 456 25T407 -2T364
-13T334 -15Q305 -15 284 -9T247 6T218 28T193 53L196 0H50V707H196ZM194 261Q194 233 198 206T216 155Q227 135 247 122T298 108Q336 108 357 128T389 175T402 228T404 268Q404 331 380 371T303 411Q291 411 279 409T254 399Q219 381 207 344T194 261Z" />
<glyph unicode="c" glyph-name="c" horiz-adv-x="542" d="M524 192Q519 156 507 127T472 69Q448 39 421 23T368 -2T319 -13T279 -15Q207 -15 158 9T79 73T36 160T23 257Q23 318 41 369T93 456T176 513T288 533Q305 533 327 531T374 520T422 497T469 456Q485 437
494 419T509 386T516 358T519 338L377 332Q375 340 371 353T357 380T330 402T285 412Q244 412 222 392T190 346T178 295T176 261Q176 235 179 210T195 163Q211 134 235 122T284 110Q296 110 311 113T340 127T365 154T380 198L524 192Z" />
<glyph unicode="d" glyph-name="d" horiz-adv-x="583" d="M532 706V0H389V50Q383 41 377 34T358 18Q331 -2 303 -7T253 -13Q206 -13 166 5T95 58T48 143T30 258Q30 320 47 370T94 456T167 511T259 531Q283 531 302 526T336 514T362 499T383 484V706H532ZM181 260Q181
244 184 214T203 158Q221 126 244 118T286 110Q323 110 343 128T374 170T386 219T388 259Q388 286 384 313T368 361T337 396T286 410Q268 410 245 400T203 360Q191 340 186 314T181 260Z" />
<glyph unicode="e" glyph-name="e" horiz-adv-x="562" d="M178 217Q180 202 184 185T202 149Q221 122 244 114T290 105Q315 105 331 111T359 127T376 145T386 161L535 150Q530 135 522 116T490 70Q483 62 469 48T430 21T370 -3T286 -14Q218 -14 168 9T86 70T39
158T23 259Q23 316 41 366T93 453T176 511T288 533Q342 533 382 517T451 475T498 416T527 346Q538 308 539 275T541 217H178ZM386 328Q384 339 381 352T367 380Q356 394 344 402T321 413T300 417T286 418Q255 418 236 408T204 383T187 353T179 328H386Z" />
<glyph unicode="f" glyph-name="f" horiz-adv-x="354" d="M334 406H236V0H89V406H17V518H89Q89 548 91 576T102 629T129 671T178 698Q189 701 198 702T224 705T265 706T334 706V592H305Q279 592 265 587T245 573T237 550T236 518H334V406Z" />
<glyph unicode="g" glyph-name="g" horiz-adv-x="583" d="M536 517V65Q536 49 535 29T530 -14T515 -60T485 -103Q447 -143 392 -156T280 -170Q242 -170 205 -164T134 -138Q108 -123 93 -105T69 -69T57 -35T52 -6H208Q210 -11 214 -19T227 -35T251 -48T291 -54Q305
-54 325 -50T359 -35Q370 -26 376 -16T385 10T389 46T391 97Q367 65 329 49T247 33Q198 33 158 50T89 100T44 179T28 282Q28 337 44 383T90 462T158 513T245 532Q277 532 300 524T342 504T372 478T394 450V517H536ZM172 282Q172 248 182 225T208 186T243 165T280
158Q306 158 327 168T362 196Q373 210 381 232T389 290Q389 345 360 378T285 411Q264 411 244 404T208 381T182 341T172 282Z" />
<glyph unicode="h" glyph-name="h" horiz-adv-x="562" d="M198 707V465Q205 477 219 488T251 509T292 525T341 531Q389 531 421 514T471 475Q486 457 494 437T507 395T511 347T512 293V0H365V256Q365 281 365 298T365 326T363 344T359 358Q352 378 335 391T288
405Q268 405 254 399T229 383Q217 373 211 362T202 336T199 302T198 259V0H52V707H198Z" />
<glyph unicode="i" glyph-name="i" horiz-adv-x="250" d="M198 518V0H52V518H198ZM198 706V573H52V706H198Z" />
<glyph unicode="j" glyph-name="j" horiz-adv-x="250" d="M200 706V574H54V706H200ZM200 518V31Q200 6 200 -12T199 -44T195 -70T187 -93Q175 -121 154 -135T105 -157T42 -164T-33 -164V-40Q-2 -40 15 -37T41 -24T52 0T54 39V518H200Z" />
<glyph unicode="k" glyph-name="k" horiz-adv-x="542" d="M50 706H197V329L194 313L365 518H552L358 301L550 0H364L195 295L198 278V0H50V706Z" />
<glyph unicode="l" glyph-name="l" horiz-adv-x="250" d="M50 707H199L193 161Q193 144 196 135T206 120T226 114T259 112V-4Q223 -7 189 -7Q179 -7 166 -7T137 -3T107 6T80 24Q56 46 51 73T45 130L50 707Z" />
<glyph unicode="m" glyph-name="m" horiz-adv-x="854" d="M195 518V448Q200 459 208 472T235 499Q255 514 281 522T336 530Q364 530 393 521Q415 513 430 503T454 481T468 459T476 441Q493 470 514 487T557 514T599 526T634 529Q670 529 700 518T752 488Q771 471
781 453T797 411T803 354T804 276V0H657V245Q657 276 657 296T654 329T649 350T640 367Q628 385 612 390T579 396Q564 396 553 392T534 383T522 372T516 366Q504 347 502 318T500 256V0H353V261Q353 303 351 325T338 365Q330 378 314 387T278 396Q258 396 240 387Q224
379 215 367T202 337T197 292T196 229V0H49V518H195Z" />
<glyph unicode="n" glyph-name="n" horiz-adv-x="562" d="M52 518H196V459Q201 466 212 478T240 501T282 521T338 530Q371 530 401 521T454 491T494 441T514 369Q515 363 515 358T516 345T516 321T516 281V0H366V271Q366 301 366 314T364 337Q360 362 349 375T325
395T302 403T288 404Q256 404 236 386T208 346Q202 330 201 309T200 251V0H52V518Z" />
<glyph unicode="o" glyph-name="o" horiz-adv-x="583" d="M299 533Q364 533 413 510T494 449T543 362T559 261Q559 196 538 145T479 59T391 4T282 -15Q218 -15 170 7T89 66T40 153T23 258Q23 316 41 366T94 453T180 511T299 533ZM408 265Q408 288 404 315T382
369Q362 399 338 407T294 415Q281 415 266 413T237 402Q215 390 203 372T184 333T176 293T174 260Q174 230 180 202Q187 171 200 152T229 123T261 109T291 105Q348 105 381 153Q400 181 404 212T408 265Z" />
<glyph unicode="p" glyph-name="p" horiz-adv-x="583" d="M192 519V457Q245 532 339 532Q387 532 426 513T494 459T537 373T553 260Q553 201 537 151T492 65T423 8T332 -13Q302 -13 280 -8T243 7T216 26T196 45V-162H49V519H192ZM302 411Q275 411 255 401Q234
390 222 372T203 334T196 293T194 255Q194 229 198 205T213 161Q228 132 251 121T299 110Q327 110 347 123T379 158T398 208T404 269Q404 291 400 316T384 362T353 397T302 411Z" />
<glyph unicode="q" glyph-name="q" horiz-adv-x="583" d="M530 518V-162H383V41Q375 31 365 22T334 3Q314 -5 292 -9T249 -13Q190 -13 149 12T81 76T42 164T30 261Q30 322 47 372T96 457T168 512T256 531Q289 531 312 523T350 503T375 481T389 462V518H530ZM283
108Q309 108 332 121T369 164Q381 189 384 219T388 266Q388 286 385 307Q377 357 352 384T288 411Q269 411 250 404T215 378T189 331T179 257Q179 240 182 213T198 163Q208 144 220 133T244 117T266 110T283 108Z" />
<glyph unicode="r" glyph-name="r" horiz-adv-x="354" d="M193 518V433Q201 452 211 469T237 500T274 520T327 528Q331 528 337 528T352 526V392Q337 395 317 395Q253 395 224 357Q216 346 211 334T204 302T201 251T200 169V0H49V518H193Z" />
<glyph unicode="s" glyph-name="s" horiz-adv-x="521" d="M162 181Q164 167 168 152T183 124T216 103T273 95Q280 95 292 96T317 102T337 116T346 143Q346 166 329 175T288 191Q283 192 269 195T240 203T211 210T191 215Q169 221 143 229T93 254T54 298T38 369Q38
380 39 394T47 425T66 459T100 492Q128 512 167 522T256 533Q294 533 333 525T406 494Q443 470 460 436T481 357L343 350Q341 363 339 373T330 393Q329 394 325 399T311 410T287 420T251 425Q213 425 197 414T180 383Q180 367 192 358T235 341Q239 340 251 337T276
331T302 325T320 321Q345 315 375 306T433 279T478 233T496 159Q496 112 478 79T428 25T356 -5T269 -15Q238 -15 214 -12T170 -3Q157 0 141 6T108 22T74 47T45 85Q28 113 25 136T22 177L162 181Z" />
<glyph unicode="t" glyph-name="t" horiz-adv-x="333" d="M92 672H239V518H313V406H239V0H92V406H18V518H92V672Z" />
<glyph unicode="u" glyph-name="u" horiz-adv-x="562" d="M51 518H196V212Q197 194 201 173T222 134Q238 118 254 115T278 112Q309 112 326 123T351 151T362 186T364 217V518H510V233Q510 212 509 189T502 143T485 96T451 51Q418 18 374 4T282 -11Q224 -11 180
7T108 53Q89 72 79 92T62 135T54 179T51 224V518Z" />
<glyph unicode="v" glyph-name="v" horiz-adv-x="500" d="M494 518L320 0H179L0 518H157L252 197L338 518H494Z" />
<glyph unicode="w" glyph-name="w" horiz-adv-x="750" d="M599 518H749L599 0H462L375 350L289 0H150L0 518H150L229 194L310 518H440L520 194L599 518Z" />
<glyph unicode="x" glyph-name="x" horiz-adv-x="542" d="M525 518L350 267L540 0H366L269 152L173 0H1L185 267L11 518H178L269 373L360 518H525Z" />
<glyph unicode="y" glyph-name="y" horiz-adv-x="521" d="M-10 518H152L268 223L368 518H530L250 -193H84L194 47L-10 518Z" />
<glyph unicode="z" glyph-name="z" horiz-adv-x="500" d="M457 518V399L209 122H474V0H18V110L274 396H47V518H457Z" />
<glyph unicode="{" glyph-name="braceleft" horiz-adv-x="354" d="M10 317Q29 317 52 321T92 350Q107 373 109 405T112 461V502Q112 529 112 545T113 571T115 587T118 601Q126 638 148 661T205 695Q218 699 230 701T259 705T298 706T354 706V604Q321 604 300 602T267
588T250 556T245 497V467Q244 427 244 405T239 366Q233 333 219 314T188 286T156 273T134 268V262Q141 261 153 259T178 250T204 231T228 199Q239 176 241 148T245 74V38Q245 9 247 -14T259 -51Q273 -68 297 -71T354 -74V-176H301Q284 -176 264 -175T223 -170T184
-156T148 -129Q122 -100 117 -66T112 12V73Q112 114 107 141T89 184T58 206T10 213V317Z" />
<glyph unicode="|" glyph-name="bar" horiz-adv-x="229" d="M166 -250H63V750H166V-250Z" />
<glyph unicode="}" glyph-name="braceright" horiz-adv-x="354" d="M354 213Q335 213 312 209T273 180Q265 169 261 155T256 125T254 95T253 69V28Q253 1 253 -15T252 -41T250 -57T247 -71Q230 -142 160 -165Q147 -169 135 -171T106 -175T67 -176T11 -176V-74Q44
-74 65 -72T98 -59T115 -27T120 32V63Q120 103 121 125T126 164Q132 196 146 215T177 244T208 257T230 262V268Q223 269 211 271T186 280T160 299T137 331Q126 354 124 382T120 456V492Q120 521 118 544T106 581Q92 598 68 601T11 604V706H64Q81 706 101 705T142
700T181 686T217 659Q243 630 247 596T253 518V456Q253 415 258 389T275 346T306 324T354 317V213Z" />
<glyph unicode="~" glyph-name="asciitilde" horiz-adv-x="729" d="M616 288Q606 278 597 269T574 248Q551 230 525 219T469 207Q443 207 420 216T366 239L337 253Q316 263 298 269T260 276Q245 276 234 273T212 261T189 240T161 207L113 295Q119 303 130 318T159
347T201 373T258 384Q286 384 309 376T365 352L399 336Q415 329 434 322T472 315Q504 315 527 334T570 377L616 288Z" />
</font>
</defs>
</svg>
